<svg width="24" height="24" viewBox="0 0 24 24" fill="none" xmlns="http://www.w3.org/2000/svg">
<path d="M16.3901 15.31H12.2001C12.0675 15.31 11.9403 15.2573 11.8465 15.1636C11.7528 15.0698 11.7001 14.9426 11.7001 14.81C11.7001 14.6774 11.7528 14.5502 11.8465 14.4564C11.9403 14.3627 12.0675 14.31 12.2001 14.31H16.3901C16.5227 14.31 16.6499 14.3627 16.7436 14.4564C16.8374 14.5502 16.8901 14.6774 16.8901 14.81C16.8901 14.9426 16.8374 15.0698 16.7436 15.1636C16.6499 15.2573 16.5227 15.31 16.3901 15.31Z" fill="white"/>
<path d="M19.21 15C19.1509 15.014 19.0892 15.014 19.0301 15C18.9684 14.9778 18.9119 14.9435 18.8637 14.899C18.8156 14.8546 18.7769 14.8009 18.7499 14.7413C18.7228 14.6816 18.708 14.6171 18.7063 14.5516C18.7047 14.4861 18.7161 14.421 18.74 14.36L21.1201 8C21.1671 7.87721 21.2607 7.77791 21.3805 7.72363C21.5003 7.66935 21.6367 7.66445 21.76 7.71C21.8838 7.7593 21.9839 7.85421 22.0397 7.97516C22.0955 8.0961 22.1028 8.23385 22.06 8.36L19.68 14.69C19.6397 14.7813 19.574 14.8591 19.4906 14.9141C19.4073 14.9691 19.3099 14.9989 19.21 15Z" fill="white"/>
<path d="M9.00001 15.19C8.89568 15.1907 8.79383 15.1582 8.7093 15.097C8.62476 15.0359 8.56195 14.9493 8.53001 14.85L5.39001 5.31H2.39001C2.25741 5.31 2.13023 5.25732 2.03646 5.16355C1.94269 5.06979 1.89001 4.94261 1.89001 4.81C1.89257 4.67819 1.94608 4.5525 2.03929 4.45928C2.13251 4.36606 2.25821 4.31256 2.39001 4.31H5.75001C5.85362 4.31221 5.9541 4.34593 6.03806 4.40667C6.12203 4.46741 6.18549 4.55229 6.22001 4.65L9.51002 14.53C9.53193 14.5917 9.54127 14.6571 9.53748 14.7224C9.53369 14.7878 9.51685 14.8517 9.48796 14.9104C9.45906 14.9691 9.4187 15.0215 9.36924 15.0643C9.31979 15.1072 9.26225 15.1397 9.20001 15.16C9.13649 15.185 9.06809 15.1953 9.00001 15.19Z" fill="white"/>
<path d="M10.54 19.69C9.9467 19.69 9.36668 19.5141 8.87333 19.1844C8.37998 18.8548 7.99546 18.3862 7.7684 17.8381C7.54134 17.2899 7.48193 16.6867 7.59768 16.1047C7.71344 15.5228 7.99916 14.9882 8.41872 14.5687C8.83828 14.1491 9.37283 13.8634 9.95477 13.7476C10.5367 13.6319 11.1399 13.6913 11.6881 13.9184C12.2363 14.1454 12.7048 14.5299 13.0344 15.0233C13.3641 15.5166 13.54 16.0967 13.54 16.69C13.54 17.4856 13.224 18.2487 12.6614 18.8113C12.0988 19.3739 11.3357 19.69 10.54 19.69ZM10.54 14.69C10.1445 14.69 9.7578 14.8073 9.4289 15.0271C9.1 15.2468 8.84366 15.5592 8.69228 15.9246C8.54091 16.2901 8.5013 16.6922 8.57847 17.0802C8.65564 17.4681 8.84612 17.8245 9.12583 18.1042C9.40553 18.3839 9.7619 18.5744 10.1499 18.6516C10.5378 18.7287 10.94 18.6891 11.3054 18.5378C11.6709 18.3864 11.9832 18.13 12.203 17.8011C12.4227 17.4722 12.54 17.0856 12.54 16.69C12.54 16.1596 12.3293 15.6509 11.9543 15.2758C11.5792 14.9007 11.0705 14.69 10.54 14.69Z" fill="white"/>
<path d="M18.05 19.69C17.4567 19.69 16.8767 19.5141 16.3833 19.1844C15.89 18.8548 15.5055 18.3862 15.2784 17.8381C15.0513 17.2899 14.9919 16.6867 15.1077 16.1047C15.2235 15.5228 15.5092 14.9882 15.9287 14.5687C16.3483 14.1491 16.8828 13.8634 17.4648 13.7476C18.0467 13.6319 18.6499 13.6913 19.1981 13.9184C19.7463 14.1454 20.2148 14.5299 20.5445 15.0233C20.8741 15.5166 21.05 16.0967 21.05 16.69C21.05 17.4856 20.734 18.2487 20.1714 18.8113C19.6088 19.3739 18.8457 19.69 18.05 19.69ZM18.05 14.69C17.6545 14.69 17.2678 14.8073 16.9389 15.0271C16.61 15.2468 16.3537 15.5592 16.2023 15.9246C16.0509 16.2901 16.0113 16.6922 16.0885 17.0802C16.1656 17.4681 16.3561 17.8245 16.6358 18.1042C16.9155 18.3839 17.2719 18.5744 17.6599 18.6516C18.0478 18.7287 18.45 18.6891 18.8154 18.5378C19.1809 18.3864 19.4932 18.13 19.713 17.8011C19.9328 17.4722 20.05 17.0856 20.05 16.69C20.05 16.1596 19.8393 15.6509 19.4643 15.2758C19.0892 14.9007 18.5805 14.69 18.05 14.69Z" fill="white"/>
</svg>
